<?xml version="1.0" encoding="utf-8"?>
<!-- Generator: Adobe Illustrator 23.0.1, SVG Export Plug-In . SVG Version: 6.00 Build 0)  -->
<svg version="1.1" id="Layer_1" xmlns="http://www.w3.org/2000/svg" xmlns:xlink="http://www.w3.org/1999/xlink" x="0px" y="0px"
	 viewBox="0 0 1000 1000" style="enable-background:new 0 0 1000 1000;" xml:space="preserve">
<style type="text/css">
	.st0{fill:#67BFC3;}
	.st1{fill:#FFFFFF;}
</style>
<g>
	<circle class="st0" cx="500" cy="500" r="500"/>
	<g>
		<path class="st1" d="M382.46,398.15l-108.52-29.08c-12.91-3.46-26.19,4.2-29.65,17.12c-3.46,12.92,4.2,26.19,17.12,29.65
			l61.74,16.54l-55.7,32.16c-11.58,6.69-15.55,21.49-8.86,33.07c4.49,7.77,12.62,12.11,20.99,12.11c4.11,0,8.27-1.05,12.08-3.25
			l55.7-32.16l-16.54,61.74c-3.46,12.92,4.2,26.19,17.12,29.65c2.1,0.56,4.21,0.83,6.28,0.83c10.69,0,20.47-7.13,23.37-17.95
			l29.08-108.51l68.89-39.77v79.55l-79.44,79.44c-9.46,9.45-9.46,24.78,0,34.24c4.73,4.72,10.92,7.09,17.12,7.09
			c6.2,0,12.39-2.36,17.12-7.09l45.19-45.2v64.32c0,13.37,10.84,24.21,24.21,24.21c13.37,0,24.21-10.84,24.21-24.21v-64.32
			l45.2,45.2c9.45,9.46,24.79,9.46,34.24,0c9.46-9.45,9.46-24.78,0-34.24l-79.44-79.44v-79.55l68.89,39.77l29.08,108.52
			c2.9,10.82,12.68,17.95,23.37,17.95c2.08,0,4.19-0.27,6.29-0.83c12.91-3.46,20.58-16.74,17.12-29.65l-16.54-61.74l55.7,32.16
			c3.81,2.21,7.97,3.25,12.08,3.25c8.37,0,16.5-4.34,20.99-12.11c6.69-11.58,2.72-26.39-8.86-33.07l-55.7-32.16l61.74-16.54
			c12.91-3.46,20.58-16.74,17.12-29.65c-3.46-12.92-16.74-20.58-29.65-17.12l-108.51,29.08l-68.89-39.77l68.89-39.77l108.51,29.08
			c2.1,0.56,4.21,0.83,6.29,0.83c10.69,0,20.47-7.13,23.37-17.95c3.46-12.92-4.2-26.19-17.12-29.65l-61.74-16.54l55.7-32.16
			c11.58-6.68,15.55-21.49,8.86-33.07c-6.69-11.59-21.5-15.55-33.07-8.86l-55.7,32.16l16.54-61.74c3.46-12.92-4.2-26.19-17.12-29.65
			c-12.92-3.46-26.19,4.2-29.65,17.12l-29.08,108.52l-68.89,39.77V236.9l79.44-79.43c9.46-9.46,9.46-24.79,0-34.24
			c-9.45-9.45-24.79-9.46-34.24,0l-45.2,45.2V104.1c0-13.37-10.84-24.21-24.21-24.21c-13.37,0-24.21,10.84-24.21,24.21v64.31
			l-45.19-45.19c-9.46-9.46-24.78-9.46-34.24,0c-9.46,9.45-9.46,24.78,0,34.24l79.44,79.44v79.55l-68.89-39.77L377.6,168.15
			c-3.46-12.92-16.75-20.59-29.65-17.12c-12.92,3.46-20.58,16.74-17.12,29.65l16.54,61.74l-55.7-32.16
			c-11.58-6.69-26.39-2.72-33.07,8.86c-6.69,11.58-2.72,26.39,8.86,33.07l55.7,32.16l-61.74,16.54
			c-12.92,3.46-20.58,16.74-17.12,29.65c2.9,10.82,12.68,17.95,23.37,17.95c2.07,0,4.18-0.27,6.28-0.83l108.51-29.08l68.89,39.78
			L382.46,398.15z"/>
		<path class="st1" d="M623.56,705.53c-54.91,31.49-85.95,77.63-99.57,102.29V688.54c0-13.37-10.84-24.21-24.21-24.21
			c-13.37,0-24.21,10.84-24.21,24.21v119.27c-13.62-24.66-44.66-70.79-99.57-102.28c-81.15-46.54-196.3-8.35-196.3-8.35
			S236.18,806.99,326.78,835c74.19,22.94,128.73,3.64,148.78-5.74v66.64c0,13.37,10.84,24.21,24.21,24.21
			c13.37,0,24.21-10.84,24.21-24.21v-66.64c20.05,9.38,74.59,28.68,148.78,5.74c90.6-28.01,147.09-137.83,147.09-137.83
			S704.7,658.99,623.56,705.53z"/>
	</g>
</g>
</svg>
