<?xml version="1.0" encoding="utf-8"?>
<!-- Generator: Adobe Illustrator 23.0.1, SVG Export Plug-In . SVG Version: 6.00 Build 0)  -->
<svg version="1.1" id="Layer_1" xmlns="http://www.w3.org/2000/svg" xmlns:xlink="http://www.w3.org/1999/xlink" x="0px" y="0px"
	 viewBox="0 0 824 77.76" style="enable-background:new 0 0 824 77.76;" xml:space="preserve">
<g>
	<g>
		<path d="M18.78,29.44L8.74,26.75c-1.2-0.32-2.42,0.39-2.74,1.58c-0.32,1.2,0.39,2.42,1.58,2.74l5.71,1.53l-5.16,2.98
			c-1.07,0.62-1.44,1.99-0.82,3.06c0.42,0.72,1.17,1.12,1.94,1.12c0.38,0,0.77-0.1,1.12-0.3l5.16-2.98L14,42.19
			c-0.32,1.2,0.39,2.42,1.58,2.74c0.19,0.05,0.39,0.08,0.58,0.08c0.99,0,1.9-0.66,2.16-1.66l2.69-10.04l6.38-3.68v7.36l-7.35,7.35
			c-0.88,0.88-0.88,2.29,0,3.17c0.44,0.44,1.01,0.66,1.58,0.66s1.15-0.22,1.58-0.66l4.18-4.18v5.95c0,1.24,1,2.24,2.24,2.24
			s2.24-1,2.24-2.24v-5.95l4.18,4.18c0.87,0.88,2.29,0.88,3.17,0s0.88-2.29,0-3.17l-7.35-7.35v-7.36l6.38,3.68l2.69,10.04
			c0.27,1,1.17,1.66,2.16,1.66c0.19,0,0.39-0.02,0.58-0.08c1.2-0.32,1.9-1.55,1.58-2.74l-1.53-5.71l5.16,2.98
			c0.35,0.2,0.74,0.3,1.12,0.3c0.77,0,1.53-0.4,1.94-1.12c0.62-1.07,0.25-2.44-0.82-3.06l-5.16-2.98l5.72-1.53
			c1.2-0.32,1.9-1.55,1.58-2.74c-0.32-1.2-1.55-1.9-2.74-1.58l-10.04,2.69l-6.38-3.68l6.38-3.68l10.04,2.69
			c0.19,0.05,0.39,0.08,0.58,0.08c0.99,0,1.89-0.66,2.16-1.66c0.32-1.2-0.39-2.42-1.58-2.74l-5.72-1.53l5.16-2.98
			c1.07-0.62,1.44-1.99,0.82-3.06c-0.62-1.07-1.99-1.44-3.06-0.82l-5.16,2.98l1.53-5.71c0.32-1.2-0.39-2.42-1.58-2.74
			c-1.2-0.32-2.42,0.39-2.74,1.58l-2.69,10.04l-6.38,3.68v-7.36l7.35-7.35c0.88-0.88,0.88-2.29,0-3.17s-2.29-0.88-3.17,0l-4.18,4.18
			V2.24c0-1.24-1-2.24-2.24-2.24s-2.24,1-2.24,2.24v5.95L23.2,4.01c-0.88-0.88-2.29-0.88-3.17,0s-0.88,2.29,0,3.17l7.35,7.35v7.36
			L21,18.21L18.31,8.17c-0.32-1.2-1.55-1.91-2.74-1.58c-1.2,0.32-1.91,1.55-1.58,2.74l1.53,5.71l-5.16-2.98
			c-1.07-0.62-2.44-0.25-3.06,0.82c-0.62,1.07-0.25,2.44,0.82,3.06l5.16,2.98l-5.72,1.53c-1.2,0.32-1.91,1.55-1.58,2.74
			c0.27,1,1.17,1.66,2.16,1.66c0.19,0,0.39-0.02,0.58-0.08l10.04-2.69l6.38,3.68L18.78,29.44z"/>
		<path d="M41.09,57.89c-5.08,2.91-7.96,7.19-9.22,9.47V56.32c0-1.24-1-2.24-2.24-2.24s-2.24,1-2.24,2.24v11.04
			c-1.26-2.28-4.13-6.55-9.22-9.47C10.66,53.58,0,57.12,0,57.12s5.23,10.16,13.61,12.76c6.87,2.12,11.92,0.34,13.77-0.53v6.17
			c0,1.24,1,2.24,2.24,2.24s2.24-1,2.24-2.24v-6.17c1.86,0.87,6.9,2.65,13.77,0.53c8.39-2.59,13.61-12.76,13.61-12.76
			S48.6,53.58,41.09,57.89z"/>
	</g>
	<g>
		<path d="M104.35,13.69c-3.08-0.88-5.99-1.32-8.71-1.32c-4.35,0-7.85,0.86-10.47,2.59c-2.63,1.72-3.94,4.07-3.94,7.03
			c0,2.6,0.73,4.72,2.18,6.35s3.23,2.92,5.35,3.85c2.12,0.94,5.02,1.98,8.71,3.13c4.29,1.27,7.75,2.53,10.38,3.76
			c2.63,1.24,4.87,3.04,6.71,5.4c1.84,2.36,2.77,5.47,2.77,9.34c0,3.39-0.95,6.38-2.86,8.98c-1.9,2.6-4.58,4.61-8.03,6.03
			s-7.41,2.13-11.88,2.13c-4.41,0-8.72-0.88-12.92-2.63s-7.82-4.08-10.84-6.98l2.9-5.17c2.84,2.78,6.14,4.96,9.89,6.53
			c3.75,1.57,7.44,2.36,11.06,2.36c4.84,0,8.67-0.98,11.52-2.95c2.84-1.96,4.26-4.61,4.26-7.94c0-2.66-0.73-4.84-2.18-6.53
			s-3.24-2.99-5.35-3.9c-2.12-0.91-5.08-1.96-8.89-3.17c-4.29-1.33-7.74-2.59-10.34-3.76c-2.6-1.18-4.81-2.93-6.62-5.26
			s-2.72-5.37-2.72-9.12c0-3.2,0.91-6.02,2.72-8.43c1.81-2.42,4.35-4.28,7.62-5.58c3.27-1.3,7.04-1.95,11.34-1.95
			c3.45,0,6.91,0.51,10.38,1.54c3.48,1.03,6.54,2.39,9.2,4.08l-2.72,5.35C110.27,15.82,107.43,14.56,104.35,13.69z"/>
		<path d="M174.18,7.11h6.17V70.5h-6.62l-39.27-53.69V70.5h-6.26V7.11h6.62l39.36,53.69V7.11z"/>
		<path d="M240.69,10.87c5.05,2.87,9.05,6.76,12.02,11.65c2.96,4.9,4.44,10.28,4.44,16.14s-1.48,11.28-4.44,16.23
			c-2.96,4.96-6.97,8.89-12.02,11.79s-10.6,4.35-16.64,4.35c-6.05,0-11.59-1.45-16.64-4.35c-5.05-2.9-9.05-6.83-12.02-11.79
			c-2.96-4.96-4.44-10.37-4.44-16.23s1.48-11.25,4.44-16.14c2.96-4.9,6.97-8.78,12.02-11.65s10.6-4.31,16.64-4.31
			C230.09,6.57,235.64,8,240.69,10.87z M210.71,15.73c-4.11,2.36-7.38,5.56-9.79,9.61c-2.42,4.05-3.63,8.49-3.63,13.33
			s1.21,9.31,3.63,13.42s5.68,7.36,9.79,9.75c4.11,2.39,8.58,3.58,13.42,3.58c4.78,0,9.2-1.19,13.29-3.58
			c4.08-2.39,7.33-5.64,9.75-9.75s3.63-8.58,3.63-13.42s-1.21-9.28-3.63-13.33s-5.67-7.26-9.75-9.61
			c-4.08-2.36-8.51-3.54-13.29-3.54C219.3,12.19,214.82,13.37,210.71,15.73z"/>
		<path d="M345.25,7.02h6.62L330.38,70.5h-6.53l-17.87-55.59L287.93,70.5h-6.44l-21.4-63.48h6.8l18.05,56.86L302.9,7.02h6.35
			l18.05,56.86L345.25,7.02z"/>
		<path d="M405.28,8.88c3.54,1.3,6.27,3.16,8.21,5.58c1.93,2.42,2.9,5.26,2.9,8.53c0,3.33-0.98,6.23-2.95,8.71
			c-1.97,2.48-4.64,4.17-8.03,5.08c4.05,0.79,7.24,2.63,9.57,5.53c2.33,2.9,3.49,6.41,3.49,10.52c0,3.57-1,6.7-2.99,9.39
			s-4.84,4.75-8.52,6.17c-3.69,1.42-8.01,2.13-12.97,2.13h-31.38V6.94h30.2C397.59,6.93,401.74,7.58,405.28,8.88z M397.35,30.56
			c1.33-1.12,2-2.68,2-4.67c0-1.93-0.67-3.43-2-4.49c-1.33-1.06-3.14-1.56-5.44-1.5h-12.7v12.33h12.7
			C394.2,32.23,396.01,31.67,397.35,30.56z M398.8,55.81c1.69-1.21,2.54-2.9,2.54-5.08c0-2-0.85-3.58-2.54-4.76
			s-3.99-1.74-6.89-1.68h-12.7v13.33h12.7C394.81,57.63,397.1,57.02,398.8,55.81z"/>
		<path d="M429.35,6.93h16.6v49.43h26.93v14.15h-43.53V6.93z"/>
		<path d="M528.33,10.19c5.23,2.84,9.34,6.74,12.33,11.7c2.99,4.96,4.49,10.52,4.49,16.69c0,6.23-1.5,11.85-4.49,16.87
			c-2.99,5.02-7.11,8.98-12.33,11.88c-5.23,2.9-11.08,4.35-17.55,4.35s-12.32-1.44-17.55-4.31s-9.34-6.83-12.33-11.88
			s-4.49-10.69-4.49-16.91c0-6.17,1.5-11.73,4.49-16.69s7.1-8.86,12.33-11.7c5.23-2.84,11.08-4.26,17.55-4.26
			S523.1,7.35,528.33,10.19z M502.22,22.44c-2.69,1.63-4.82,3.89-6.39,6.76s-2.36,6.03-2.36,9.48c0,3.51,0.8,6.7,2.4,9.57
			c1.6,2.87,3.73,5.14,6.39,6.8c2.66,1.66,5.56,2.49,8.71,2.49c3.14,0,6.03-0.83,8.66-2.49c2.63-1.66,4.7-3.93,6.21-6.8
			c1.51-2.87,2.27-6.06,2.27-9.57c0-3.45-0.76-6.6-2.27-9.48c-1.51-2.87-3.58-5.12-6.21-6.76c-2.63-1.63-5.52-2.45-8.66-2.45
			C507.82,19.99,504.9,20.81,502.22,22.44z"/>
		<path d="M588.02,21.17c-3.84-1.27-7.06-1.9-9.66-1.9c-2.06,0-3.67,0.38-4.85,1.13c-1.18,0.76-1.77,1.86-1.77,3.31
			c0,1.39,0.51,2.55,1.54,3.49c1.03,0.94,2.3,1.69,3.81,2.27s3.75,1.32,6.71,2.22c4.41,1.27,8.06,2.54,10.93,3.81
			s5.34,3.22,7.39,5.85s3.08,6.06,3.08,10.29s-1.12,7.84-3.36,10.84c-2.24,2.99-5.31,5.25-9.21,6.76s-8.24,2.27-13.02,2.27
			c-5.26,0-10.51-0.92-15.73-2.77c-5.23-1.84-9.75-4.37-13.56-7.57l6.44-12.97c3.2,2.84,7,5.17,11.38,6.98s8.27,2.72,11.65,2.72
			c2.48,0,4.43-0.45,5.85-1.36s2.13-2.24,2.13-3.99c0-1.45-0.53-2.66-1.59-3.63s-2.39-1.74-3.99-2.31c-1.6-0.57-3.85-1.25-6.76-2.04
			c-4.35-1.21-7.95-2.43-10.79-3.67c-2.84-1.24-5.28-3.11-7.3-5.62c-2.03-2.51-3.04-5.85-3.04-10.02c0-3.93,1.04-7.38,3.13-10.34
			c2.09-2.96,5.05-5.24,8.89-6.85c3.84-1.6,8.3-2.4,13.38-2.4c4.59,0,9.13,0.65,13.6,1.95s8.4,3.04,11.79,5.21l-6.26,13.24
			C595.47,24.07,591.86,22.44,588.02,21.17z"/>
		<path d="M649.18,21.17c-3.84-1.27-7.06-1.9-9.66-1.9c-2.06,0-3.67,0.38-4.85,1.13c-1.18,0.76-1.77,1.86-1.77,3.31
			c0,1.39,0.51,2.55,1.54,3.49c1.03,0.94,2.3,1.69,3.81,2.27s3.75,1.32,6.71,2.22c4.41,1.27,8.06,2.54,10.93,3.81
			s5.34,3.22,7.39,5.85s3.08,6.06,3.08,10.29s-1.12,7.84-3.36,10.84c-2.24,2.99-5.31,5.25-9.21,6.76s-8.24,2.27-13.02,2.27
			c-5.26,0-10.51-0.92-15.73-2.77c-5.23-1.84-9.75-4.37-13.56-7.57l6.44-12.97c3.2,2.84,7,5.17,11.38,6.98s8.27,2.72,11.65,2.72
			c2.48,0,4.43-0.45,5.85-1.36s2.13-2.24,2.13-3.99c0-1.45-0.53-2.66-1.59-3.63s-2.39-1.74-3.99-2.31c-1.6-0.57-3.85-1.25-6.76-2.04
			c-4.35-1.21-7.95-2.43-10.79-3.67c-2.84-1.24-5.28-3.11-7.3-5.62c-2.03-2.51-3.04-5.85-3.04-10.02c0-3.93,1.04-7.38,3.13-10.34
			c2.09-2.96,5.05-5.24,8.89-6.85c3.84-1.6,8.3-2.4,13.38-2.4c4.59,0,9.13,0.65,13.6,1.95s8.4,3.04,11.79,5.21l-6.26,13.24
			C656.63,24.07,653.02,22.44,649.18,21.17z"/>
		<path d="M725.16,10.19c5.23,2.84,9.34,6.74,12.33,11.7c2.99,4.96,4.49,10.52,4.49,16.69c0,6.23-1.5,11.85-4.49,16.87
			c-2.99,5.02-7.11,8.98-12.33,11.88c-5.23,2.9-11.08,4.35-17.55,4.35s-12.32-1.44-17.55-4.31s-9.34-6.83-12.33-11.88
			s-4.49-10.69-4.49-16.91c0-6.17,1.5-11.73,4.49-16.69s7.1-8.86,12.33-11.7c5.23-2.84,11.08-4.26,17.55-4.26
			C714.08,5.93,719.93,7.35,725.16,10.19z M699.04,22.44c-2.69,1.63-4.82,3.89-6.39,6.76s-2.36,6.03-2.36,9.48
			c0,3.51,0.8,6.7,2.4,9.57c1.6,2.87,3.73,5.14,6.39,6.8c2.66,1.66,5.56,2.49,8.71,2.49c3.14,0,6.03-0.83,8.66-2.49
			c2.63-1.66,4.7-3.93,6.21-6.8c1.51-2.87,2.27-6.06,2.27-9.57c0-3.45-0.76-6.6-2.27-9.48c-1.51-2.87-3.58-5.12-6.21-6.76
			c-2.63-1.63-5.52-2.45-8.66-2.45C704.65,19.99,701.73,20.81,699.04,22.44z"/>
		<path d="M751.17,6.93h18.05l18.41,37.18l18.32-37.18H824v63.58h-14.7l-0.09-40.27l-16.23,33.92h-10.7l-16.33-33.92v40.27h-14.78
			L751.17,6.93L751.17,6.93z"/>
	</g>
</g>
</svg>
