<?xml version="1.0" encoding="utf-8"?>
<!-- Generator: Adobe Illustrator 23.0.1, SVG Export Plug-In . SVG Version: 6.00 Build 0)  -->
<svg version="1.1" id="Layer_1" xmlns="http://www.w3.org/2000/svg" xmlns:xlink="http://www.w3.org/1999/xlink" x="0px" y="0px"
	 viewBox="0 0 597.8 784.61" style="enable-background:new 0 0 597.8 784.61;" xml:space="preserve">
<style type="text/css">
	.st0{fill:#67BFC3;}
</style>
<g>
	<path class="st0" d="M189.34,297.19L88,270.04c-12.06-3.23-24.46,3.93-27.69,15.99s3.93,24.46,15.99,27.69l57.66,15.45L81.94,359.2
		c-10.81,6.24-14.52,20.07-8.28,30.88c4.19,7.25,11.79,11.31,19.6,11.31c3.83,0,7.72-0.98,11.28-3.03l52.01-30.03l-15.45,57.65
		c-3.23,12.06,3.93,24.46,15.99,27.69c1.96,0.53,3.93,0.77,5.87,0.77c9.98,0,19.12-6.66,21.83-16.76l27.15-101.33l64.33-37.14v74.28
		l-74.18,74.18c-8.83,8.83-8.83,23.14,0,31.98c4.42,4.41,10.2,6.62,15.99,6.62c5.79,0,11.57-2.21,15.99-6.62l42.2-42.21v60.06
		c0,12.49,10.12,22.61,22.61,22.61s22.61-10.12,22.61-22.61v-60.06l42.21,42.21c8.82,8.83,23.15,8.83,31.97,0
		c8.83-8.83,8.83-23.14,0-31.97l-74.18-74.19v-74.28l64.33,37.14l27.15,101.34c2.71,10.1,11.84,16.76,21.82,16.76
		c1.94,0,3.91-0.25,5.87-0.77c12.06-3.23,19.22-15.63,15.99-27.69l-15.45-57.65l52.02,30.03c3.56,2.06,7.45,3.03,11.29,3.03
		c7.81,0,15.41-4.05,19.6-11.31c6.25-10.82,2.54-24.64-8.27-30.88l-52.02-30.03l57.66-15.45c12.06-3.23,19.22-15.63,15.99-27.69
		s-15.63-19.21-27.69-15.99L408.45,297.2l-64.33-37.14l64.33-37.14l101.33,27.15c1.96,0.53,3.93,0.77,5.87,0.77
		c9.98,0,19.12-6.66,21.82-16.76c3.23-12.06-3.93-24.46-15.99-27.69l-57.66-15.45l52.02-30.03c10.82-6.24,14.52-20.07,8.27-30.88
		c-6.25-10.82-20.08-14.52-30.88-8.27l-52.02,30.03l15.45-57.66c3.23-12.06-3.93-24.46-15.99-27.69
		c-12.07-3.23-24.46,3.92-27.69,15.99l-27.15,101.34l-64.33,37.14v-74.29l74.18-74.18c8.83-8.83,8.83-23.15,0-31.98
		s-23.15-8.83-31.98,0l-42.21,42.21V22.61C321.49,10.12,311.37,0,298.88,0s-22.61,10.12-22.61,22.61v60.06l-42.2-42.2
		c-8.83-8.83-23.14-8.83-31.98,0c-8.83,8.83-8.83,23.14,0,31.97l74.18,74.18v74.29l-64.33-37.14L184.79,82.43
		c-3.23-12.06-15.64-19.23-27.69-15.99c-12.06,3.23-19.22,15.63-15.99,27.69l15.45,57.66l-52.02-30.03
		c-10.81-6.25-24.64-2.54-30.89,8.27c-6.24,10.82-2.54,24.64,8.28,30.88l52.02,30.03l-57.66,15.45
		c-12.06,3.23-19.22,15.63-15.99,27.69c2.71,10.1,11.84,16.76,21.83,16.76c1.94,0,3.91-0.25,5.87-0.77l101.34-27.15l64.33,37.14
		L189.34,297.19z"/>
	<path class="st0" d="M414.49,584.22c-51.28,29.41-80.27,72.49-92.98,95.52V568.36c0-12.49-10.12-22.61-22.61-22.61
		s-22.61,10.12-22.61,22.61v111.38c-12.72-23.03-41.71-66.11-92.98-95.52C107.53,540.76,0,576.42,0,576.42
		s52.75,102.55,137.36,128.71c69.29,21.42,120.21,3.4,138.94-5.36V762c0,12.49,10.12,22.61,22.61,22.61s22.61-10.12,22.61-22.61
		v-62.23c18.72,8.76,69.65,26.78,138.94,5.36c84.59-26.16,137.34-128.71,137.34-128.71S490.26,540.76,414.49,584.22z"/>
</g>
</svg>
