<?xml version="1.0" encoding="utf-8"?>
<!-- Generator: Adobe Illustrator 23.0.1, SVG Export Plug-In . SVG Version: 6.00 Build 0)  -->
<svg version="1.1" id="Layer_1" xmlns="http://www.w3.org/2000/svg" xmlns:xlink="http://www.w3.org/1999/xlink" x="0px" y="0px"
	 viewBox="0 0 796.49 668.86" style="enable-background:new 0 0 796.49 668.86;" xml:space="preserve">
<g>
	<g>
		<path d="M323.66,201.92l-68.85-18.45c-8.19-2.2-16.62,2.67-18.81,10.86c-2.2,8.2,2.67,16.62,10.86,18.81l39.17,10.5l-35.34,20.4
			c-7.35,4.24-9.86,13.63-5.62,20.98c2.85,4.93,8.01,7.68,13.32,7.68c2.6,0,5.25-0.67,7.67-2.06l35.34-20.4l-10.49,39.17
			c-2.2,8.2,2.67,16.62,10.86,18.81c1.33,0.36,2.67,0.53,3.98,0.53c6.78,0,12.99-4.52,14.83-11.39l18.45-68.85l43.7-25.23v50.47
			l-50.4,50.4c-6,6-6,15.72,0,21.72c3,3,6.93,4.5,10.86,4.5c3.93,0,7.86-1.5,10.86-4.5l28.67-28.67v40.81
			c0,8.48,6.88,15.36,15.36,15.36c8.48,0,15.36-6.88,15.36-15.36v-40.81l28.68,28.68c6,6,15.73,6,21.72,0c6-6,6-15.72,0-21.72
			l-50.4-50.4v-50.47l43.71,25.23l18.45,68.85c1.84,6.86,8.05,11.39,14.83,11.39c1.32,0,2.66-0.17,3.99-0.53
			c8.19-2.2,13.06-10.62,10.86-18.81l-10.49-39.17l35.34,20.4c2.42,1.4,5.06,2.06,7.67,2.06c5.31,0,10.47-2.75,13.32-7.68
			c4.24-7.35,1.73-16.74-5.62-20.98l-35.34-20.4l39.17-10.5c8.19-2.2,13.06-10.62,10.86-18.81c-2.2-8.2-10.62-13.05-18.81-10.86
			l-68.85,18.45l-43.71-25.23l43.71-25.23l68.85,18.45c1.33,0.36,2.67,0.53,3.99,0.53c6.78,0,12.99-4.52,14.83-11.39
			c2.2-8.2-2.67-16.62-10.86-18.81l-39.17-10.5l35.34-20.4c7.35-4.24,9.87-13.63,5.62-20.98c-4.24-7.35-13.64-9.86-20.98-5.62
			l-35.34,20.4l10.49-39.17c2.2-8.2-2.67-16.62-10.86-18.81c-8.2-2.19-16.62,2.66-18.81,10.86l-18.45,68.85l-43.71,25.23V99.61
			l50.4-50.4c6-6,6-15.73,0-21.72s-15.73-6-21.72,0l-28.68,28.68v-40.8c0-8.48-6.88-15.36-15.36-15.36
			c-8.48,0-15.36,6.88-15.36,15.36v40.8l-28.67-28.67c-6-6-15.72-6-21.72,0c-6,6-6,15.72,0,21.72l50.4,50.4v50.47l-43.71-25.23
			L320.57,56c-2.2-8.2-10.63-13.06-18.81-10.86c-8.19,2.2-13.06,10.62-10.86,18.81l10.5,39.17l-35.34-20.4
			c-7.34-4.25-16.74-1.72-20.98,5.62c-4.24,7.35-1.72,16.74,5.62,20.98l35.34,20.4l-39.17,10.5c-8.19,2.2-13.06,10.62-10.86,18.81
			c1.84,6.86,8.04,11.39,14.83,11.39c1.32,0,2.65-0.17,3.98-0.53l68.85-18.45l43.71,25.24L323.66,201.92z"/>
		<path d="M476.62,396.93c-34.84,19.98-54.53,49.25-63.17,64.9v-75.67c0-8.48-6.88-15.36-15.36-15.36
			c-8.48,0-15.36,6.88-15.36,15.36v75.67c-8.64-15.65-28.34-44.92-63.17-64.89c-51.48-29.53-124.54-5.3-124.54-5.3
			s35.84,69.67,93.32,87.44c47.07,14.55,81.67,2.31,94.39-3.64v42.28c0,8.48,6.88,15.36,15.36,15.36c8.48,0,15.36-6.88,15.36-15.36
			v-42.28c12.72,5.95,47.32,18.2,94.39,3.64c57.48-17.77,93.32-87.44,93.32-87.44S528.1,367.41,476.62,396.93z"/>
	</g>
	<g>
		<path d="M35.48,607.53c-3.26-0.93-6.33-1.39-9.21-1.39c-4.6,0-8.3,0.91-11.08,2.73c-2.78,1.82-4.17,4.3-4.17,7.43
			c0,2.75,0.77,4.99,2.3,6.71c1.53,1.73,3.42,3.09,5.66,4.08c2.24,0.99,5.31,2.1,9.21,3.31c4.54,1.34,8.2,2.67,10.98,3.98
			c2.78,1.31,5.15,3.21,7.1,5.71c1.95,2.49,2.93,5.79,2.93,9.88c0,3.58-1.01,6.75-3.02,9.49c-2.01,2.75-4.84,4.88-8.49,6.38
			c-3.64,1.5-7.83,2.26-12.56,2.26c-4.67,0-9.22-0.93-13.67-2.78c-4.44-1.85-8.26-4.32-11.46-7.38l3.07-5.47
			c3,2.94,6.49,5.24,10.45,6.91c3.96,1.66,7.86,2.49,11.7,2.49c5.11,0,9.17-1.04,12.18-3.12c3-2.08,4.51-4.87,4.51-8.39
			c0-2.81-0.77-5.11-2.3-6.9c-1.53-1.79-3.42-3.16-5.66-4.12c-2.24-0.96-5.37-2.08-9.4-3.36c-4.54-1.41-8.19-2.73-10.93-3.98
			c-2.75-1.25-5.08-3.1-7-5.56s-2.88-5.67-2.88-9.64c0-3.39,0.96-6.36,2.88-8.92c1.92-2.56,4.6-4.52,8.06-5.9
			c3.45-1.37,7.45-2.06,11.99-2.06c3.64,0,7.3,0.54,10.98,1.63c3.68,1.09,6.92,2.53,9.73,4.31l-2.88,5.66
			C41.75,609.78,38.75,608.45,35.48,607.53z"/>
		<path d="M109.33,600.57h6.52v67.04h-7l-41.53-56.78v56.78h-6.62v-67.04h7l41.62,56.78V600.57z"/>
		<path d="M179.66,604.55c5.34,3.04,9.57,7.15,12.71,12.32c3.13,5.18,4.7,10.87,4.7,17.07c0,6.2-1.57,11.93-4.7,17.17
			c-3.13,5.24-7.37,9.4-12.71,12.47c-5.34,3.07-11.21,4.6-17.6,4.6c-6.39,0-12.26-1.53-17.6-4.6c-5.34-3.07-9.58-7.22-12.71-12.47
			c-3.13-5.24-4.7-10.97-4.7-17.17c0-6.2,1.57-11.89,4.7-17.07c3.13-5.18,7.37-9.29,12.71-12.32c5.34-3.04,11.2-4.56,17.6-4.56
			C168.45,600,174.32,601.52,179.66,604.55z M147.96,609.68c-4.35,2.49-7.8,5.88-10.36,10.17c-2.56,4.28-3.84,8.98-3.84,14.1
			c0,5.12,1.28,9.85,3.84,14.19c2.56,4.35,6.01,7.79,10.36,10.31c4.35,2.53,9.08,3.79,14.19,3.79c5.05,0,9.73-1.26,14.05-3.79
			c4.32-2.52,7.75-5.96,10.31-10.31c2.56-4.35,3.84-9.08,3.84-14.19c0-5.11-1.28-9.81-3.84-14.1c-2.56-4.28-5.99-7.67-10.31-10.17
			c-4.32-2.49-9-3.74-14.05-3.74C157.04,605.94,152.31,607.19,147.96,609.68z"/>
		<path d="M290.23,600.48h7l-22.73,67.13h-6.91l-18.89-58.79l-19.08,58.79h-6.81l-22.63-67.13h7.19l19.09,60.13l18.99-60.13h6.71
			l19.09,60.13L290.23,600.48z"/>
		<path d="M353.71,602.44c3.74,1.38,6.63,3.34,8.68,5.9c2.05,2.56,3.07,5.56,3.07,9.02c0,3.52-1.04,6.59-3.12,9.21
			c-2.08,2.62-4.91,4.41-8.49,5.37c4.28,0.83,7.66,2.78,10.12,5.85c2.46,3.07,3.69,6.78,3.69,11.13c0,3.77-1.06,7.08-3.17,9.93
			c-2.11,2.85-5.12,5.02-9.01,6.52c-3.9,1.5-8.47,2.25-13.71,2.25h-33.18v-67.23h31.94C345.58,600.38,349.97,601.07,353.71,602.44z
			 M345.32,625.36c1.41-1.18,2.11-2.83,2.11-4.94c0-2.05-0.7-3.63-2.11-4.75c-1.41-1.12-3.33-1.65-5.75-1.58h-13.43v13.04h13.43
			C342,627.14,343.92,626.55,345.32,625.36z M346.86,652.07c1.79-1.28,2.69-3.07,2.69-5.37c0-2.11-0.9-3.79-2.69-5.04
			c-1.79-1.25-4.22-1.84-7.29-1.77h-13.43v14.1h13.43C342.64,653.99,345.07,653.35,346.86,652.07z"/>
		<path d="M379.17,600.38h17.55v52.27h28.48v14.96h-46.03V600.38z"/>
		<path d="M483.84,603.83c5.53,3.01,9.88,7.13,13.04,12.37c3.16,5.24,4.75,11.13,4.75,17.65c0,6.59-1.58,12.53-4.75,17.84
			c-3.16,5.31-7.51,9.5-13.04,12.56c-5.53,3.07-11.72,4.6-18.56,4.6c-6.84,0-13.03-1.52-18.56-4.56
			c-5.53-3.04-9.88-7.22-13.04-12.56c-3.16-5.34-4.75-11.3-4.75-17.89c0-6.52,1.58-12.4,4.75-17.65c3.17-5.24,7.51-9.37,13.04-12.37
			c5.53-3,11.72-4.51,18.56-4.51C472.12,599.33,478.31,600.83,483.84,603.83z M456.22,616.78c-2.85,1.73-5.1,4.11-6.76,7.15
			c-1.66,3.04-2.49,6.38-2.49,10.02c0,3.71,0.85,7.08,2.54,10.12c1.69,3.04,3.95,5.43,6.76,7.19c2.81,1.76,5.88,2.64,9.21,2.64
			c3.32,0,6.38-0.88,9.16-2.64c2.78-1.76,4.97-4.16,6.57-7.19c1.6-3.04,2.4-6.41,2.4-10.12c0-3.64-0.8-6.98-2.4-10.02
			c-1.6-3.04-3.79-5.42-6.57-7.15c-2.78-1.73-5.84-2.59-9.16-2.59C462.15,614.19,459.07,615.06,456.22,616.78z"/>
		<path d="M546.96,615.44c-4.06-1.34-7.47-2.01-10.21-2.01c-2.17,0-3.88,0.4-5.13,1.2c-1.25,0.8-1.87,1.97-1.87,3.5
			c0,1.47,0.54,2.7,1.63,3.69c1.09,0.99,2.43,1.79,4.03,2.4c1.6,0.61,3.96,1.39,7.1,2.35c4.67,1.34,8.52,2.69,11.56,4.03
			c3.04,1.34,5.64,3.4,7.82,6.18c2.17,2.78,3.26,6.41,3.26,10.89c0,4.48-1.18,8.3-3.55,11.46c-2.37,3.16-5.61,5.55-9.73,7.15
			c-4.12,1.6-8.71,2.4-13.76,2.4c-5.56,0-11.11-0.98-16.64-2.93c-5.53-1.95-10.31-4.62-14.34-8.01l6.81-13.72
			c3.39,3.01,7.4,5.47,12.04,7.38c4.63,1.92,8.74,2.88,12.32,2.88c2.62,0,4.68-0.48,6.19-1.44c1.5-0.96,2.25-2.36,2.25-4.22
			c0-1.53-0.56-2.81-1.68-3.84c-1.12-1.02-2.53-1.84-4.22-2.45c-1.69-0.61-4.08-1.33-7.15-2.16c-4.6-1.28-8.41-2.57-11.41-3.88
			c-3.01-1.31-5.58-3.29-7.72-5.95c-2.14-2.65-3.21-6.19-3.21-10.6c0-4.16,1.1-7.8,3.31-10.93c2.21-3.13,5.34-5.55,9.4-7.24
			c4.06-1.69,8.78-2.54,14.15-2.54c4.86,0,9.65,0.69,14.39,2.06c4.73,1.38,8.89,3.21,12.47,5.51l-6.62,14
			C554.84,618.51,551.02,616.78,546.96,615.44z"/>
		<path d="M611.64,615.44c-4.06-1.34-7.47-2.01-10.21-2.01c-2.17,0-3.88,0.4-5.13,1.2c-1.25,0.8-1.87,1.97-1.87,3.5
			c0,1.47,0.54,2.7,1.63,3.69c1.09,0.99,2.43,1.79,4.03,2.4c1.6,0.61,3.96,1.39,7.1,2.35c4.67,1.34,8.52,2.69,11.56,4.03
			c3.04,1.34,5.64,3.4,7.82,6.18c2.17,2.78,3.26,6.41,3.26,10.89c0,4.48-1.18,8.3-3.55,11.46c-2.37,3.16-5.61,5.55-9.73,7.15
			c-4.12,1.6-8.71,2.4-13.76,2.4c-5.56,0-11.11-0.98-16.64-2.93c-5.53-1.95-10.31-4.62-14.34-8.01l6.81-13.72
			c3.39,3.01,7.4,5.47,12.04,7.38c4.63,1.92,8.74,2.88,12.32,2.88c2.62,0,4.68-0.48,6.19-1.44c1.5-0.96,2.25-2.36,2.25-4.22
			c0-1.53-0.56-2.81-1.68-3.84c-1.12-1.02-2.53-1.84-4.22-2.45c-1.69-0.61-4.08-1.33-7.15-2.16c-4.6-1.28-8.41-2.57-11.41-3.88
			c-3.01-1.31-5.58-3.29-7.72-5.95c-2.14-2.65-3.21-6.19-3.21-10.6c0-4.16,1.1-7.8,3.31-10.93c2.21-3.13,5.34-5.55,9.4-7.24
			c4.06-1.69,8.78-2.54,14.15-2.54c4.86,0,9.65,0.69,14.39,2.06c4.73,1.38,8.89,3.21,12.47,5.51l-6.62,14
			C619.51,618.51,615.7,616.78,611.64,615.44z"/>
		<path d="M691.98,603.83c5.53,3.01,9.88,7.13,13.04,12.37c3.16,5.24,4.75,11.13,4.75,17.65c0,6.59-1.58,12.53-4.75,17.84
			c-3.16,5.31-7.51,9.5-13.04,12.56c-5.53,3.07-11.72,4.6-18.56,4.6c-6.84,0-13.03-1.52-18.56-4.56
			c-5.53-3.04-9.88-7.22-13.04-12.56c-3.16-5.34-4.75-11.3-4.75-17.89c0-6.52,1.58-12.4,4.75-17.65c3.17-5.24,7.51-9.37,13.04-12.37
			c5.53-3,11.72-4.51,18.56-4.51C680.26,599.33,686.45,600.83,691.98,603.83z M664.36,616.78c-2.85,1.73-5.1,4.11-6.76,7.15
			c-1.66,3.04-2.49,6.38-2.49,10.02c0,3.71,0.85,7.08,2.54,10.12c1.69,3.04,3.95,5.43,6.76,7.19c2.81,1.76,5.88,2.64,9.21,2.64
			c3.32,0,6.38-0.88,9.16-2.64c2.78-1.76,4.97-4.16,6.57-7.19c1.6-3.04,2.4-6.41,2.4-10.12c0-3.64-0.8-6.98-2.4-10.02
			c-1.6-3.04-3.79-5.42-6.57-7.15c-2.78-1.73-5.84-2.59-9.16-2.59C670.29,614.19,667.2,615.06,664.36,616.78z"/>
		<path d="M719.48,600.38h19.09l19.47,39.32l19.37-39.32h19.09v67.23h-15.54l-0.1-42.58L763.7,660.9h-11.32l-17.26-35.87v42.58
			h-15.63V600.38z"/>
	</g>
</g>
</svg>
